# xmcd CD database file generated by OrangeCD 6.2
#
# Track frame offsets:
#	150
#	12804
#	25931
#	39411
#	64884
#	78509
#	91674
#	103840
#	119461
#	132609
#	140908
#	154461
#	167680
#	179689
#	192804
#	207973
#	240707
#	254635
#	266559
#	281676
#
# Disc length: 3924 seconds
#
# Revision: 0
# Processed by: cddbd v1.5.2PL0 Copyright (c) Steve Scherf et al.
# Submitted via: OrangeCD 6.2
#
DISCID=2d0f5214
DTITLE=Various Artist - BABY, PLEASE DON'T GO
DYEAR=2008
DGENRE=
TTITLE0=Wise Woman Blues - Dinah Washington
TTITLE1=That Old Devil Called Love - Billy Holiday
TTITLE2=Custerd Pie Blues - Sonny Terry 
TTITLE3=Conrina, Corrina - Big Joe Turner
TTITLE4=Basin Street Blues - Ella Fitzgerald
TTITLE5=Chewin' Moma Blues - Dinah Washington
TTITLE6=It's Only A Paper Moon - Ella  Fitzerald
TTITLE7=Do Nothing Til'  You Hear From Me - Billy Holliday
TTITLE8=Postman Blues - Dinah Washington
TTITLE9=Baby, Please Don't Go - Big Joe Turner
TTITLE10=Crawlin' King Snake - John Lee Hooker
TTITLE11=I'm Still In Love With You - T- Bone walker
TTITLE12=A Tisket, A Tasket - Ella Fitgerald
TTITLE13=Don't Want No Big Fat Woman - Big Joe Williams
TTITLE14=Blow Top Blues - Dinah Washington
TTITLE15=Night Time Is The Right Time - Big Joe Turner
TTITLE16=Georgia On My Mind -  Billie Holliday
TTITLE17=Mean Mistreating' Mama - Elmore James
TTITLE18=Angels Laid Him Away - Misssissippi John Hurt
TTITLE19=I'm Beginning To See The Light - Ella Firzgerld and Ink Spots
EXTD=
EXTT0=
EXTT1=
EXTT2=
EXTT3=
EXTT4=
EXTT5=
EXTT6=
EXTT7=
EXTT8=
EXTT9=
EXTT10=
EXTT11=
EXTT12=
EXTT13=
EXTT14=
EXTT15=
EXTT16=
EXTT17=
EXTT18=
EXTT19=
PLAYORDER=
